<svg xmlns="http://www.w3.org/2000/svg" xmlns:xlink="http://www.w3.org/1999/xlink" width="500" zoomAndPan="magnify" viewBox="0 0 375 374.999991" height="500" preserveAspectRatio="xMidYMid meet" version="1.0"><defs><g/><clipPath id="d444f6a3ac"><path d="M 113.292969 75.710938 L 261 75.710938 L 261 225.710938 L 113.292969 225.710938 Z M 113.292969 75.710938 " clip-rule="nonzero"/></clipPath></defs><g clip-path="url(#d444f6a3ac)"><path fill="#5e17eb" d="M 176.195312 104.402344 C 177.929688 106.234375 179.664062 108.070312 181.398438 109.90625 C 181.617188 110.140625 181.847656 110.394531 181.914062 110.710938 C 181.96875 111 181.875 111.296875 181.878906 111.59375 C 181.890625 112.265625 182.386719 112.8125 182.855469 113.292969 C 183.4375 113.894531 184.023438 114.492188 184.605469 115.089844 C 184.976562 115.472656 185.359375 115.875 185.507812 116.386719 C 185.710938 117.078125 185.445312 117.820312 185.53125 118.535156 C 185.589844 119.027344 185.816406 119.484375 186.027344 119.9375 C 187.265625 122.558594 188.199219 125.328125 188.796875 128.164062 C 188.941406 128.839844 189.054688 129.59375 188.691406 130.179688 C 188.367188 130.707031 187.746094 130.957031 187.253906 131.328125 C 186.761719 131.699219 186.367188 132.402344 186.714844 132.914062 C 186.871094 133.140625 187.132812 133.265625 187.386719 133.375 C 190.078125 134.503906 193.007812 134.890625 195.902344 135.265625 C 196.414062 135.332031 196.933594 135.398438 197.445312 135.339844 C 198.347656 135.238281 199.195312 134.726562 199.710938 133.980469 C 201.828125 130.902344 204.847656 128.542969 208.507812 127.792969 C 213.09375 126.855469 217.9375 128.542969 222.5 127.476562 C 224.421875 125.109375 227.058594 123.050781 229.925781 122.007812 C 231.929688 121.28125 234.175781 120.945312 236.1875 121.648438 C 236.679688 121.820312 237.160156 122.050781 237.679688 122.078125 C 238.292969 122.109375 238.882812 121.84375 239.441406 121.585938 C 240.078125 121.292969 240.714844 121 241.351562 120.703125 C 240.53125 116.757812 239.671875 112.464844 239.808594 108.433594 C 239.84375 107.410156 239.933594 106.390625 239.890625 105.367188 C 239.867188 104.804688 239.800781 104.242188 239.722656 103.683594 C 239.378906 101.308594 238.777344 98.972656 237.933594 96.726562 C 236.996094 94.25 235.769531 91.894531 234.546875 89.542969 C 234.261719 89 233.308594 88.902344 232.695312 88.9375 C 232.082031 88.972656 231.484375 89.148438 230.871094 89.199219 C 228.472656 89.410156 226.28125 87.765625 223.882812 87.5625 C 222.8125 87.472656 221.742188 87.671875 220.683594 87.859375 C 220.449219 87.902344 220.203125 87.941406 219.984375 87.855469 C 219.742188 87.757812 219.582031 87.523438 219.449219 87.296875 C 219.175781 86.839844 218.941406 86.363281 218.746094 85.871094 C 218.617188 85.550781 218.515625 85.164062 218.71875 84.886719 C 218.820312 84.753906 218.980469 84.675781 219.078125 84.542969 C 219.34375 84.191406 219.105469 83.6875 219.175781 83.253906 C 219.21875 82.992188 219.371094 82.765625 219.519531 82.546875 C 220.367188 81.261719 221.042969 79.863281 221.523438 78.398438 C 221.722656 77.785156 221.902344 77.136719 222.328125 76.648438 C 222.984375 75.890625 224.082031 75.695312 225.085938 75.710938 C 227.160156 75.75 229.210938 76.53125 230.789062 77.878906 C 231.210938 78.242188 231.601562 78.640625 232.023438 79.007812 C 232.382812 79.324219 232.765625 79.613281 233.148438 79.902344 C 234.058594 80.589844 234.96875 81.277344 235.878906 81.964844 C 236.570312 82.484375 237.261719 83.007812 237.953125 83.53125 C 238.832031 84.191406 239.710938 84.855469 240.667969 85.394531 C 242.371094 86.34375 242.714844 88.417969 243.703125 90.101562 C 244.304688 91.128906 245.039062 91.835938 245.734375 92.800781 C 247.023438 94.59375 248.3125 96.386719 249.597656 98.179688 C 250.453125 99.371094 251.308594 100.5625 252.121094 101.78125 C 256.46875 108.351562 259.453125 115.824219 260.820312 123.585938 C 260.984375 124.527344 260.515625 125.445312 259.980469 126.238281 C 259.445312 127.035156 258.71875 127.683594 258.015625 128.335938 C 254.4375 131.671875 251.277344 135.429688 247.714844 138.78125 C 244.152344 142.132812 240.082031 145.113281 235.378906 146.457031 C 231.175781 147.65625 226.464844 147.5625 222.851562 150.023438 C 218.109375 153.253906 219.738281 160.976562 217.605469 166.300781 C 216.664062 168.652344 215.351562 170.859375 214.605469 173.277344 C 213.144531 178.015625 212.136719 182.933594 210.066406 187.4375 C 209.304688 189.097656 208.425781 190.71875 207.9375 192.476562 C 206.980469 195.929688 207.585938 199.613281 208.457031 203.089844 C 209.328125 206.566406 210.460938 210.023438 210.546875 213.605469 C 210.648438 217.773438 212.839844 221.683594 213.984375 225.691406 L 159.65625 225.691406 C 160.597656 222.796875 161.625 220.195312 162.871094 217.417969 C 163.234375 216.601562 163.617188 215.785156 163.796875 214.90625 C 163.964844 214.082031 163.949219 213.234375 164.003906 212.394531 C 164.292969 207.996094 166.507812 203.769531 166.050781 199.386719 C 165.882812 197.769531 166.148438 196.167969 165.613281 194.632812 C 165.078125 193.097656 164.265625 191.675781 163.457031 190.265625 C 161.433594 186.742188 159.382812 183.210938 156.785156 180.09375 C 156.09375 181.011719 155.285156 181.9375 154.59375 182.855469 C 153.898438 183.78125 153.203125 184.707031 152.464844 185.597656 C 149.496094 189.191406 145.832031 192.25 141.636719 194.28125 C 139.21875 195.453125 136.632812 196.28125 134.34375 197.683594 C 133.253906 198.347656 132.234375 199.144531 131.054688 199.640625 C 129.726562 200.199219 128.261719 200.351562 126.820312 200.394531 C 124.554688 200.464844 122.171875 200.246094 120.28125 198.992188 C 119.539062 198.5 119.21875 197.605469 118.820312 196.808594 C 118.296875 195.765625 117.769531 194.726562 117.246094 193.683594 C 116.757812 192.710938 116.269531 191.734375 115.863281 190.726562 C 114.660156 187.742188 114.210938 184.511719 113.902344 181.3125 C 113.648438 178.714844 113.488281 176.109375 113.410156 173.5 C 113.316406 170.191406 114.714844 166.84375 114.980469 163.546875 C 115.191406 160.890625 114.777344 158.148438 115.582031 155.609375 C 116.222656 153.59375 117 151.445312 118.070312 149.625 C 120.320312 145.800781 122.566406 141.980469 124.8125 138.15625 C 124.976562 137.882812 125.140625 137.605469 125.382812 137.402344 C 125.894531 136.972656 126.652344 136.96875 127.285156 137.179688 C 127.917969 137.390625 128.472656 137.78125 129.0625 138.089844 C 130.535156 138.863281 132.234375 139.144531 133.652344 140.011719 C 133.878906 140.148438 134.105469 140.308594 134.234375 140.542969 C 134.371094 140.792969 134.375 141.089844 134.449219 141.363281 C 134.609375 141.949219 135.070312 142.394531 135.425781 142.886719 C 135.785156 143.378906 136.046875 144.042969 135.761719 144.578125 C 135.648438 144.796875 135.453125 144.964844 135.257812 145.117188 C 134.375 145.820312 133.375 146.410156 132.695312 147.316406 C 132.335938 147.792969 132.082031 148.34375 131.738281 148.835938 C 129.945312 151.390625 126.050781 151.941406 124.574219 154.691406 C 124.011719 155.734375 123.890625 156.957031 123.871094 158.140625 C 123.832031 160.5625 124.167969 162.988281 124.871094 165.304688 C 125.398438 167.054688 126.546875 168.394531 127.5 169.957031 C 127.957031 170.707031 128.425781 171.449219 128.96875 172.140625 C 129.386719 172.675781 129.84375 173.179688 130.214844 173.746094 C 130.675781 174.460938 130.984375 175.261719 131.28125 176.0625 C 131.839844 174.988281 132.140625 173.761719 132.515625 172.613281 C 133.070312 170.902344 134.195312 169.421875 135.515625 168.203125 C 136.835938 166.984375 138.355469 166.007812 139.875 165.046875 C 139.804688 162.664062 140.945312 160.433594 142.011719 158.304688 C 142.675781 156.976562 143.40625 155.671875 144.289062 154.476562 C 148.125 149.269531 154.976562 146.472656 161.359375 147.503906 C 161.882812 147.589844 162.496094 147.328125 162.871094 146.957031 C 164.308594 145.535156 165.742188 144.117188 167.179688 142.699219 C 167.648438 142.234375 168.125 141.765625 168.460938 141.199219 C 169.175781 139.992188 169.183594 138.464844 168.785156 137.121094 C 168.386719 135.777344 167.628906 134.570312 166.863281 133.394531 C 166.359375 132.617188 165.835938 131.832031 165.101562 131.265625 C 164.617188 130.894531 164.058594 130.636719 163.535156 130.324219 C 161.507812 129.117188 159.953125 127.109375 157.726562 126.320312 C 154.703125 125.246094 152.378906 122.277344 151.265625 119.269531 C 150.820312 118.070312 150.644531 116.769531 150.753906 115.496094 C 150.828125 114.609375 151.035156 113.742188 151.242188 112.878906 C 151.535156 111.660156 151.828125 110.445312 152.121094 109.230469 C 152.234375 108.765625 152.347656 108.296875 152.554688 107.867188 C 152.984375 106.984375 153.777344 106.339844 154.546875 105.730469 C 156.238281 104.386719 157.953125 103.058594 159.84375 102.015625 C 161.734375 100.972656 163.820312 100.222656 165.976562 100.121094 C 167.03125 100.070312 168.089844 100.179688 169.136719 100.324219 C 170.472656 100.511719 171.8125 100.773438 173.035156 101.34375 C 174.253906 101.914062 175.269531 103.421875 176.195312 104.402344 Z M 176.195312 104.402344 " fill-opacity="1" fill-rule="nonzero"/></g><g fill="#5e17eb" fill-opacity="1"><g transform="translate(120.2811, 263.307141)"><g><path d="M 2.34375 -16.53125 L 10.203125 -16.53125 C 10.347656 -16.53125 10.460938 -16.484375 10.546875 -16.390625 C 10.628906 -16.296875 10.671875 -16.1875 10.671875 -16.0625 L 10.671875 -15.859375 C 10.671875 -15.535156 10.515625 -15.375 10.203125 -15.375 L 2.625 -15.375 L 2.625 -0.46875 C 2.625 -0.34375 2.578125 -0.234375 2.484375 -0.140625 C 2.398438 -0.046875 2.289062 0 2.15625 0 L 1.90625 0 C 1.769531 0 1.65625 -0.046875 1.5625 -0.140625 C 1.476562 -0.234375 1.4375 -0.34375 1.4375 -0.46875 L 1.4375 -15.59375 C 1.4375 -15.894531 1.488281 -16.125 1.59375 -16.28125 C 1.707031 -16.445312 1.957031 -16.53125 2.34375 -16.53125 Z M 3.5625 -9.171875 L 8.890625 -9.171875 C 9.015625 -9.171875 9.125 -9.125 9.21875 -9.03125 C 9.3125 -8.9375 9.359375 -8.820312 9.359375 -8.6875 L 9.359375 -8.484375 C 9.359375 -8.335938 9.3125 -8.222656 9.21875 -8.140625 C 9.125 -8.054688 9.015625 -8.015625 8.890625 -8.015625 L 3.5625 -8.015625 C 3.269531 -8.015625 3.125 -8.171875 3.125 -8.484375 L 3.125 -8.6875 C 3.125 -8.820312 3.164062 -8.9375 3.25 -9.03125 C 3.332031 -9.125 3.4375 -9.171875 3.5625 -9.171875 Z M 3.5625 -9.171875 "/></g></g></g><g fill="#5e17eb" fill-opacity="1"><g transform="translate(131.95189, 263.307141)"><g><path d="M 2.21875 -16.53125 L 2.4375 -16.53125 C 2.5625 -16.53125 2.671875 -16.484375 2.765625 -16.390625 C 2.859375 -16.296875 2.90625 -16.1875 2.90625 -16.0625 L 2.90625 -0.46875 C 2.90625 -0.34375 2.859375 -0.234375 2.765625 -0.140625 C 2.671875 -0.046875 2.5625 0 2.4375 0 L 2.21875 0 C 2.082031 0 1.96875 -0.046875 1.875 -0.140625 C 1.789062 -0.234375 1.75 -0.34375 1.75 -0.46875 L 1.75 -16.0625 C 1.75 -16.1875 1.789062 -16.296875 1.875 -16.390625 C 1.96875 -16.484375 2.082031 -16.53125 2.21875 -16.53125 Z M 2.21875 -16.53125 "/></g></g></g><g fill="#5e17eb" fill-opacity="1"><g transform="translate(136.913159, 263.307141)"><g><path d="M 5.6875 -14.734375 L 5.9375 -14.734375 C 6.25 -14.734375 6.40625 -14.585938 6.40625 -14.296875 L 6.40625 -0.46875 C 6.40625 -0.34375 6.359375 -0.234375 6.265625 -0.140625 C 6.179688 -0.046875 6.070312 0 5.9375 0 L 5.6875 0 C 5.550781 0 5.4375 -0.046875 5.34375 -0.140625 C 5.257812 -0.234375 5.21875 -0.34375 5.21875 -0.46875 L 5.21875 -14.296875 C 5.21875 -14.585938 5.375 -14.734375 5.6875 -14.734375 Z M 0.59375 -16.53125 L 11.078125 -16.53125 C 11.222656 -16.53125 11.335938 -16.484375 11.421875 -16.390625 C 11.503906 -16.296875 11.546875 -16.1875 11.546875 -16.0625 L 11.546875 -15.8125 C 11.546875 -15.519531 11.390625 -15.375 11.078125 -15.375 L 0.59375 -15.375 C 0.28125 -15.375 0.125 -15.519531 0.125 -15.8125 L 0.125 -16.0625 C 0.125 -16.1875 0.171875 -16.296875 0.265625 -16.390625 C 0.359375 -16.484375 0.46875 -16.53125 0.59375 -16.53125 Z M 0.59375 -16.53125 "/></g></g></g><g fill="#5e17eb" fill-opacity="1"><g transform="translate(148.961949, 263.307141)"><g><path d="M 2.109375 -16.578125 C 2.523438 -16.578125 2.851562 -16.390625 3.09375 -16.015625 C 6.132812 -10.972656 8.929688 -6.175781 11.484375 -1.625 L 11.484375 -16.0625 C 11.484375 -16.1875 11.523438 -16.296875 11.609375 -16.390625 C 11.691406 -16.484375 11.804688 -16.53125 11.953125 -16.53125 L 12.1875 -16.53125 C 12.332031 -16.53125 12.445312 -16.484375 12.53125 -16.390625 C 12.613281 -16.296875 12.65625 -16.1875 12.65625 -16.0625 L 12.65625 -0.875 C 12.65625 -0.5625 12.566406 -0.328125 12.390625 -0.171875 C 12.210938 -0.0234375 11.957031 0.046875 11.625 0.046875 C 11.289062 0.046875 11.015625 -0.125 10.796875 -0.46875 L 2.40625 -14.859375 L 2.40625 -0.46875 C 2.40625 -0.34375 2.359375 -0.234375 2.265625 -0.140625 C 2.171875 -0.046875 2.0625 0 1.9375 0 L 1.671875 0 C 1.546875 0 1.441406 -0.046875 1.359375 -0.140625 C 1.273438 -0.234375 1.234375 -0.34375 1.234375 -0.46875 L 1.234375 -15.609375 C 1.234375 -16.253906 1.523438 -16.578125 2.109375 -16.578125 Z M 2.109375 -16.578125 "/></g></g></g><g fill="#5e17eb" fill-opacity="1"><g transform="translate(163.373244, 263.307141)"><g><path d="M 2.40625 -16.53125 L 10.65625 -16.53125 C 10.78125 -16.53125 10.890625 -16.484375 10.984375 -16.390625 C 11.078125 -16.296875 11.125 -16.1875 11.125 -16.0625 L 11.125 -15.859375 C 11.125 -15.710938 11.078125 -15.59375 10.984375 -15.5 C 10.890625 -15.414062 10.78125 -15.375 10.65625 -15.375 L 2.640625 -15.375 L 2.640625 -1.15625 L 10.65625 -1.15625 C 10.78125 -1.15625 10.890625 -1.109375 10.984375 -1.015625 C 11.078125 -0.929688 11.125 -0.820312 11.125 -0.6875 L 11.125 -0.46875 C 11.125 -0.34375 11.078125 -0.234375 10.984375 -0.140625 C 10.890625 -0.046875 10.78125 0 10.65625 0 L 2.390625 0 C 2.003906 0 1.753906 -0.0820312 1.640625 -0.25 C 1.523438 -0.414062 1.46875 -0.644531 1.46875 -0.9375 L 1.46875 -15.609375 C 1.46875 -15.929688 1.535156 -16.164062 1.671875 -16.3125 C 1.816406 -16.457031 2.0625 -16.53125 2.40625 -16.53125 Z M 4.0625 -9.171875 L 9.125 -9.171875 C 9.257812 -9.171875 9.367188 -9.125 9.453125 -9.03125 C 9.546875 -8.9375 9.59375 -8.820312 9.59375 -8.6875 L 9.59375 -8.484375 C 9.59375 -8.171875 9.4375 -8.015625 9.125 -8.015625 L 4.0625 -8.015625 C 3.75 -8.015625 3.59375 -8.171875 3.59375 -8.484375 L 3.59375 -8.6875 C 3.59375 -8.820312 3.632812 -8.9375 3.71875 -9.03125 C 3.800781 -9.125 3.914062 -9.171875 4.0625 -9.171875 Z M 4.0625 -9.171875 "/></g></g></g><g fill="#5e17eb" fill-opacity="1"><g transform="translate(175.422032, 263.307141)"><g><path d="M 2.015625 -12.78125 C 2.015625 -13.800781 2.429688 -14.6875 3.265625 -15.4375 C 4.097656 -16.195312 5.234375 -16.578125 6.671875 -16.578125 C 8.109375 -16.578125 9.316406 -16.195312 10.296875 -15.4375 C 11.285156 -14.675781 11.816406 -13.539062 11.890625 -12.03125 C 11.890625 -11.90625 11.835938 -11.789062 11.734375 -11.6875 C 11.640625 -11.582031 11.53125 -11.53125 11.40625 -11.53125 L 11.171875 -11.53125 C 11.066406 -11.53125 10.960938 -11.570312 10.859375 -11.65625 C 10.765625 -11.738281 10.710938 -11.847656 10.703125 -11.984375 C 10.648438 -13.171875 10.242188 -14.035156 9.484375 -14.578125 C 8.734375 -15.128906 7.832031 -15.40625 6.78125 -15.40625 C 5.644531 -15.40625 4.757812 -15.144531 4.125 -14.625 C 3.5 -14.101562 3.1875 -13.457031 3.1875 -12.6875 C 3.1875 -11.925781 3.40625 -11.320312 3.84375 -10.875 C 4.457031 -10.257812 5.601562 -9.628906 7.28125 -8.984375 C 9.257812 -8.191406 10.582031 -7.398438 11.25 -6.609375 C 11.75 -6.015625 12 -5.15625 12 -4.03125 C 12 -2.914062 11.546875 -1.957031 10.640625 -1.15625 C 9.734375 -0.363281 8.445312 0.03125 6.78125 0.03125 C 5.53125 0.03125 4.359375 -0.3125 3.265625 -1 C 2.679688 -1.351562 2.203125 -1.859375 1.828125 -2.515625 C 1.460938 -3.171875 1.265625 -3.921875 1.234375 -4.765625 C 1.234375 -5.097656 1.390625 -5.265625 1.703125 -5.265625 L 1.90625 -5.265625 C 2.195312 -5.265625 2.359375 -5.113281 2.390625 -4.8125 C 2.421875 -4.125 2.59375 -3.523438 2.90625 -3.015625 C 3.21875 -2.503906 3.613281 -2.117188 4.09375 -1.859375 C 5 -1.378906 6 -1.140625 7.09375 -1.140625 C 8.1875 -1.140625 9.082031 -1.425781 9.78125 -2 C 10.488281 -2.570312 10.84375 -3.289062 10.84375 -4.15625 C 10.84375 -5.039062 10.5625 -5.71875 10 -6.1875 C 9.539062 -6.5625 9.039062 -6.882812 8.5 -7.15625 C 7.8125 -7.488281 6.726562 -7.953125 5.25 -8.546875 C 4.113281 -9.054688 3.289062 -9.632812 2.78125 -10.28125 C 2.269531 -10.9375 2.015625 -11.769531 2.015625 -12.78125 Z M 2.015625 -12.78125 "/></g></g></g><g fill="#5e17eb" fill-opacity="1"><g transform="translate(188.817461, 263.307141)"><g><path d="M 2.015625 -12.78125 C 2.015625 -13.800781 2.429688 -14.6875 3.265625 -15.4375 C 4.097656 -16.195312 5.234375 -16.578125 6.671875 -16.578125 C 8.109375 -16.578125 9.316406 -16.195312 10.296875 -15.4375 C 11.285156 -14.675781 11.816406 -13.539062 11.890625 -12.03125 C 11.890625 -11.90625 11.835938 -11.789062 11.734375 -11.6875 C 11.640625 -11.582031 11.53125 -11.53125 11.40625 -11.53125 L 11.171875 -11.53125 C 11.066406 -11.53125 10.960938 -11.570312 10.859375 -11.65625 C 10.765625 -11.738281 10.710938 -11.847656 10.703125 -11.984375 C 10.648438 -13.171875 10.242188 -14.035156 9.484375 -14.578125 C 8.734375 -15.128906 7.832031 -15.40625 6.78125 -15.40625 C 5.644531 -15.40625 4.757812 -15.144531 4.125 -14.625 C 3.5 -14.101562 3.1875 -13.457031 3.1875 -12.6875 C 3.1875 -11.925781 3.40625 -11.320312 3.84375 -10.875 C 4.457031 -10.257812 5.601562 -9.628906 7.28125 -8.984375 C 9.257812 -8.191406 10.582031 -7.398438 11.25 -6.609375 C 11.75 -6.015625 12 -5.15625 12 -4.03125 C 12 -2.914062 11.546875 -1.957031 10.640625 -1.15625 C 9.734375 -0.363281 8.445312 0.03125 6.78125 0.03125 C 5.53125 0.03125 4.359375 -0.3125 3.265625 -1 C 2.679688 -1.351562 2.203125 -1.859375 1.828125 -2.515625 C 1.460938 -3.171875 1.265625 -3.921875 1.234375 -4.765625 C 1.234375 -5.097656 1.390625 -5.265625 1.703125 -5.265625 L 1.90625 -5.265625 C 2.195312 -5.265625 2.359375 -5.113281 2.390625 -4.8125 C 2.421875 -4.125 2.59375 -3.523438 2.90625 -3.015625 C 3.21875 -2.503906 3.613281 -2.117188 4.09375 -1.859375 C 5 -1.378906 6 -1.140625 7.09375 -1.140625 C 8.1875 -1.140625 9.082031 -1.425781 9.78125 -2 C 10.488281 -2.570312 10.84375 -3.289062 10.84375 -4.15625 C 10.84375 -5.039062 10.5625 -5.71875 10 -6.1875 C 9.539062 -6.5625 9.039062 -6.882812 8.5 -7.15625 C 7.8125 -7.488281 6.726562 -7.953125 5.25 -8.546875 C 4.113281 -9.054688 3.289062 -9.632812 2.78125 -10.28125 C 2.269531 -10.9375 2.015625 -11.769531 2.015625 -12.78125 Z M 2.015625 -12.78125 "/></g></g></g><g fill="#5e17eb" fill-opacity="1"><g transform="translate(202.212884, 263.307141)"><g/></g></g><g fill="#5e17eb" fill-opacity="1"><g transform="translate(214.261669, 263.307141)"><g><path d="M 3.90625 -16.078125 C 4.46875 -16.335938 4.960938 -16.5 5.390625 -16.5625 C 5.828125 -16.632812 6.253906 -16.671875 6.671875 -16.671875 C 7.085938 -16.671875 7.507812 -16.632812 7.9375 -16.5625 C 8.363281 -16.5 8.832031 -16.351562 9.34375 -16.125 C 9.851562 -15.894531 10.3125 -15.601562 10.71875 -15.25 C 11.132812 -14.894531 11.5 -14.40625 11.8125 -13.78125 C 12.125 -13.164062 12.320312 -12.445312 12.40625 -11.625 C 12.40625 -11.28125 12.25 -11.109375 11.9375 -11.109375 L 11.71875 -11.109375 C 11.4375 -11.109375 11.28125 -11.25 11.25 -11.53125 C 11.164062 -12.1875 11 -12.765625 10.75 -13.265625 C 10.5 -13.773438 10.207031 -14.164062 9.875 -14.4375 C 9.539062 -14.707031 9.160156 -14.925781 8.734375 -15.09375 C 8.109375 -15.363281 7.523438 -15.5 6.984375 -15.5 C 6.441406 -15.5 5.992188 -15.46875 5.640625 -15.40625 C 5.285156 -15.34375 4.882812 -15.207031 4.4375 -15 C 4 -14.789062 3.613281 -14.515625 3.28125 -14.171875 C 2.945312 -13.835938 2.664062 -13.363281 2.4375 -12.75 C 2.21875 -12.144531 2.109375 -11.4375 2.109375 -10.625 L 2.109375 -6 C 2.109375 -5.195312 2.222656 -4.488281 2.453125 -3.875 C 2.691406 -3.257812 2.972656 -2.78125 3.296875 -2.4375 C 3.628906 -2.101562 4.019531 -1.832031 4.46875 -1.625 C 4.925781 -1.425781 5.328125 -1.296875 5.671875 -1.234375 C 6.015625 -1.171875 6.359375 -1.140625 6.703125 -1.140625 C 7.054688 -1.140625 7.40625 -1.164062 7.75 -1.21875 C 8.09375 -1.269531 8.484375 -1.394531 8.921875 -1.59375 C 9.367188 -1.789062 9.753906 -2.050781 10.078125 -2.375 C 10.410156 -2.695312 10.691406 -3.148438 10.921875 -3.734375 C 11.148438 -4.316406 11.265625 -4.992188 11.265625 -5.765625 L 11.265625 -7.140625 L 7.375 -7.140625 C 7.0625 -7.140625 6.90625 -7.296875 6.90625 -7.609375 L 6.90625 -7.8125 C 6.90625 -7.945312 6.945312 -8.0625 7.03125 -8.15625 C 7.113281 -8.25 7.226562 -8.296875 7.375 -8.296875 L 11.484375 -8.296875 C 12.109375 -8.296875 12.421875 -7.957031 12.421875 -7.28125 L 12.421875 -5.734375 C 12.421875 -4.773438 12.273438 -3.929688 11.984375 -3.203125 C 11.691406 -2.472656 11.34375 -1.910156 10.9375 -1.515625 C 10.53125 -1.117188 10.050781 -0.800781 9.5 -0.5625 C 8.601562 -0.164062 7.671875 0.03125 6.703125 0.03125 C 5.703125 0.03125 4.84375 -0.140625 4.125 -0.484375 C 3.40625 -0.835938 2.835938 -1.21875 2.421875 -1.625 C 2.003906 -2.039062 1.648438 -2.617188 1.359375 -3.359375 C 1.078125 -4.109375 0.9375 -4.96875 0.9375 -5.9375 L 0.9375 -10.71875 C 0.9375 -11.71875 1.082031 -12.59375 1.375 -13.34375 C 1.664062 -14.101562 2.019531 -14.679688 2.4375 -15.078125 C 2.863281 -15.484375 3.351562 -15.816406 3.90625 -16.078125 Z M 3.90625 -16.078125 "/></g></g></g><g fill="#5e17eb" fill-opacity="1"><g transform="translate(228.22409, 263.307141)"><g><path d="M 9.265625 -16.53125 L 9.53125 -16.53125 C 9.71875 -16.53125 9.84375 -16.472656 9.90625 -16.359375 C 9.96875 -16.242188 10 -16.144531 10 -16.0625 C 10 -15.988281 9.976562 -15.910156 9.9375 -15.828125 L 9.9375 -15.859375 L 5.9375 -8.578125 C 5.8125 -8.390625 5.722656 -8.269531 5.671875 -8.21875 L 5.671875 -0.46875 C 5.671875 -0.34375 5.625 -0.234375 5.53125 -0.140625 C 5.4375 -0.046875 5.328125 0 5.203125 0 L 4.96875 0 C 4.84375 0 4.734375 -0.046875 4.640625 -0.140625 C 4.546875 -0.234375 4.5 -0.34375 4.5 -0.46875 L 4.5 -8.25 C 4.414062 -8.320312 4.34375 -8.414062 4.28125 -8.53125 L -0.015625 -15.828125 C -0.0664062 -15.910156 -0.09375 -15.988281 -0.09375 -16.0625 C -0.09375 -16.144531 -0.0625 -16.242188 0 -16.359375 C 0.0703125 -16.472656 0.203125 -16.53125 0.390625 -16.53125 L 0.671875 -16.53125 C 0.828125 -16.53125 0.960938 -16.460938 1.078125 -16.328125 L 5.09375 -9.421875 L 8.890625 -16.390625 C 8.953125 -16.484375 9.078125 -16.53125 9.265625 -16.53125 Z M 9.265625 -16.53125 "/></g></g></g><g fill="#5e17eb" fill-opacity="1"><g transform="translate(238.76087, 263.307141)"><g><path d="M 12.703125 -16.609375 C 12.960938 -16.609375 13.1875 -16.523438 13.375 -16.359375 C 13.5625 -16.191406 13.65625 -15.9375 13.65625 -15.59375 L 13.65625 -0.46875 C 13.65625 -0.34375 13.609375 -0.234375 13.515625 -0.140625 C 13.429688 -0.046875 13.320312 0 13.1875 0 L 12.96875 0 C 12.820312 0 12.707031 -0.046875 12.625 -0.140625 C 12.539062 -0.234375 12.5 -0.34375 12.5 -0.46875 L 12.5 -14.53125 L 8.390625 -4.375 C 8.210938 -3.957031 7.925781 -3.726562 7.53125 -3.6875 C 7.070312 -3.6875 6.75 -3.90625 6.5625 -4.34375 L 2.21875 -14.625 L 2.21875 -0.46875 C 2.21875 -0.34375 2.171875 -0.234375 2.078125 -0.140625 C 1.984375 -0.046875 1.875 0 1.75 0 L 1.515625 0 C 1.390625 0 1.28125 -0.046875 1.1875 -0.140625 C 1.101562 -0.234375 1.0625 -0.34375 1.0625 -0.46875 L 1.0625 -15.59375 C 1.0625 -16.269531 1.367188 -16.609375 1.984375 -16.609375 C 2.410156 -16.609375 2.722656 -16.375 2.921875 -15.90625 L 7.46875 -5.203125 L 11.765625 -15.90625 C 11.984375 -16.375 12.296875 -16.609375 12.703125 -16.609375 Z M 12.703125 -16.609375 "/></g></g></g><g fill="#5e17eb" fill-opacity="1"><g transform="translate(125.321913, 288.649464)"><g><path d="M 9.734375 -17.351562 L 14.640625 -17.351562 L 14.640625 -21.148438 L 0.460938 -21.148438 L 0.460938 -17.351562 L 5.339844 -17.351562 L 5.339844 0 L 9.734375 0 Z M 9.734375 -17.351562 "/></g></g></g><g fill="#5e17eb" fill-opacity="1"><g transform="translate(140.961953, 288.649464)"><g><path d="M 5.910156 -7.589844 L 8.160156 -7.589844 L 11.0625 0 L 15.804688 0 L 12.472656 -8.214844 C 14.371094 -9 15.804688 -10.683594 15.804688 -14.097656 L 15.804688 -14.640625 C 15.804688 -20.253906 11.902344 -21.148438 8.460938 -21.148438 L 1.519531 -21.148438 L 1.519531 0 L 5.910156 0 Z M 5.910156 -11.386719 L 5.910156 -17.351562 L 8.648438 -17.351562 C 9.84375 -17.351562 11.359375 -16.890625 11.359375 -14.503906 L 11.359375 -14.234375 C 11.359375 -11.847656 9.84375 -11.386719 8.648438 -11.386719 Z M 5.910156 -11.386719 "/></g></g></g><g fill="#5e17eb" fill-opacity="1"><g transform="translate(158.390956, 288.649464)"><g><path d="M 5.667969 -21.203125 L 0.378906 0 L 5.097656 0 L 6.101562 -4.554688 L 11.277344 -4.554688 L 12.308594 0 L 17 0 L 11.710938 -21.203125 Z M 8.675781 -16.132812 L 10.410156 -8.351562 L 6.941406 -8.351562 Z M 8.675781 -16.132812 "/></g></g></g><g fill="#5e17eb" fill-opacity="1"><g transform="translate(176.307867, 288.649464)"><g><path d="M 6.046875 -21.148438 L 1.652344 -21.148438 L 1.652344 0 L 6.046875 0 Z M 6.046875 -21.148438 "/></g></g></g><g fill="#5e17eb" fill-opacity="1"><g transform="translate(184.520999, 288.649464)"><g><path d="M 17 -21.148438 L 12.824219 -21.148438 L 12.824219 -12.28125 L 12.960938 -8.023438 L 6.15625 -21.148438 L 1.519531 -21.148438 L 1.519531 0 L 5.667969 0 L 5.667969 -8.867188 L 5.53125 -13.121094 L 12.363281 0 L 17 0 Z M 17 -21.148438 "/></g></g></g><g fill="#5e17eb" fill-opacity="1"><g transform="translate(203.576332, 288.649464)"><g><path d="M 6.046875 -21.148438 L 1.652344 -21.148438 L 1.652344 0 L 6.046875 0 Z M 6.046875 -21.148438 "/></g></g></g><g fill="#5e17eb" fill-opacity="1"><g transform="translate(211.789464, 288.649464)"><g><path d="M 17 -21.148438 L 12.824219 -21.148438 L 12.824219 -12.28125 L 12.960938 -8.023438 L 6.15625 -21.148438 L 1.519531 -21.148438 L 1.519531 0 L 5.667969 0 L 5.667969 -8.867188 L 5.53125 -13.121094 L 12.363281 0 L 17 0 Z M 17 -21.148438 "/></g></g></g><g fill="#5e17eb" fill-opacity="1"><g transform="translate(230.844797, 288.649464)"><g><path d="M 9.433594 0.351562 C 13.121094 0.351562 15.265625 -0.8125 16.835938 -2.113281 L 16.835938 -11.441406 L 9.652344 -11.441406 L 9.652344 -7.644531 L 12.445312 -7.644531 L 12.445312 -4.257812 C 11.792969 -3.796875 10.816406 -3.441406 9.570312 -3.441406 L 9.328125 -3.441406 C 6.234375 -3.441406 5.53125 -5.800781 5.53125 -10.03125 L 5.53125 -11.117188 C 5.53125 -15.34375 6.261719 -17.703125 9.164062 -17.703125 L 9.40625 -17.703125 C 11.847656 -17.703125 12.472656 -16.023438 12.472656 -13.121094 L 16.863281 -13.121094 L 16.863281 -14.097656 C 16.863281 -19.386719 14.207031 -21.5 9.164062 -21.5 C 3.6875 -21.5 1.058594 -18.4375 1.058594 -11.117188 L 1.058594 -10.03125 C 1.058594 -2.710938 3.6875 0.351562 9.433594 0.351562 Z M 9.433594 0.351562 "/></g></g></g></svg>